<?xml version="1.0" encoding="UTF-8" standalone="no"?>
<svg
   xmlns:dc="http://purl.org/dc/elements/1.1/"
   xmlns:cc="http://creativecommons.org/ns#"
   xmlns:rdf="http://www.w3.org/1999/02/22-rdf-syntax-ns#"
   xmlns:svg="http://www.w3.org/2000/svg"
   xmlns="http://www.w3.org/2000/svg"
   xmlns:sodipodi="http://sodipodi.sourceforge.net/DTD/sodipodi-0.dtd"
   xmlns:inkscape="http://www.inkscape.org/namespaces/inkscape"
   version="1.1"
   id="svg2"
   xml:space="preserve"
   width="793.70135"
   height="1122.52"
   viewBox="0 0 793.70135 1122.52"
   sodipodi:docname="gambero-rosso-1.ai"><metadata
     id="metadata8"><rdf:RDF><cc:Work
         rdf:about=""><dc:format>image/svg+xml</dc:format><dc:type
           rdf:resource="http://purl.org/dc/dcmitype/StillImage" /></cc:Work></rdf:RDF></metadata><defs
     id="defs6"><clipPath
       clipPathUnits="userSpaceOnUse"
       id="clipPath18"><path
         d="M 0,841.89 H 595.276 V 0 H 0 Z"
         id="path16" /></clipPath></defs><sodipodi:namedview
     pagecolor="#ffffff"
     bordercolor="#666666"
     borderopacity="1"
     objecttolerance="10"
     gridtolerance="10"
     guidetolerance="10"
     inkscape:pageopacity="0"
     inkscape:pageshadow="2"
     inkscape:window-width="640"
     inkscape:window-height="480"
     id="namedview4" /><g
     id="g10"
     inkscape:groupmode="layer"
     inkscape:label="gambero-rosso-1"
     transform="matrix(1.3333333,0,0,-1.3333333,0,1122.52)"><g
       id="g12"><g
         id="g14"
         clip-path="url(#clipPath18)"><g
           id="g20"
           transform="translate(508.2734,567.3149)"><path
             d="m 0,0 h 0.663 c 0.736,0 1.082,0.548 1.082,1.399 0,0.851 -0.491,1.153 -1.126,1.153 H 0 Z m -1.688,2.842 h 2.639 c 0.909,0 1.76,-0.434 1.76,-1.385 0,-0.78 -0.52,-1.355 -1.212,-1.587 l 0.866,-1.211 c 0.404,-0.534 0.88,-1.082 1.167,-1.268 v -0.13 H 2.609 c -0.504,0 -0.864,0.995 -1.874,2.466 H 0 v -1.5 c 0,-0.65 0.016,-0.678 0.735,-0.736 v -0.23 h -2.423 v 0.23 c 0.707,0.058 0.737,0.086 0.737,0.736 v 3.632 c 0,0.664 -0.03,0.707 -0.737,0.766 z m -1.859,-2.9 c 0,-2.422 1.932,-4.555 4.282,-4.555 2.365,0 4.283,2.133 4.283,4.57 0,2.451 -1.904,4.6 -4.283,4.6 -2.364,0 -4.282,-2.163 -4.282,-4.6 z m 9.387,0 c 0,-2.855 -2.25,-5.191 -5.105,-5.191 -2.84,0 -5.104,2.336 -5.104,5.206 0,2.885 2.264,5.234 5.104,5.234 2.855,0 5.105,-2.336 5.105,-5.234 z"
             style="fill:#e2001a;fill-opacity:1;fill-rule:nonzero;stroke:none"
             id="path22" /></g><g
           id="g24"
           transform="translate(105.3018,516.4009)"><path
             d="m 0,0 v -24.983 c 0,0 -4.065,-9.87 -12.57,-9.87 -15.41,0 -20.62,15.688 -20.62,43.823 0,18.436 4.291,46.627 18.837,46.627 5.077,0 9.887,-5.879 9.887,-5.879 l 1.588,5.879 H 0 V 26.071 h -4.867 c -0.534,19.105 -4.965,23.914 -9.352,23.914 -4.275,0 -9.465,-10.068 -9.619,-41.707 -0.153,-30.441 5.675,-37.786 11.089,-37.786 2.981,0 4.676,3.206 4.676,3.206 L -7.806,0 c 0.073,6.769 -4.943,6.77 -4.943,6.77 v 3.936 H 5.02 V 6.77 C 5.02,6.77 0,4.03 0,0"
             style="fill:#e2001a;fill-opacity:1;fill-rule:nonzero;stroke:none"
             id="path26" /></g><g
           id="g28"
           transform="translate(118.2466,522.5298)"><path
             d="m 0,0 c 2.212,17.785 4.767,38.398 4.767,38.398 0,0 3.152,-21.518 5.635,-38.398 z M 21.682,-17.382 C 21.064,-13.925 9.211,48.558 9.211,48.558 H 2.915 c 0,0 -8.668,-67.943 -9.754,-73.87 -1.086,-5.925 -4.198,-7.037 -4.198,-7.037 v -2.715 l 12.47,5.555 v 1.976 c 0,0 -5.185,-2.222 -4.568,2.47 0.23,1.744 1.38,10.961 2.736,21.853 h 11.273 c 1.204,-8.182 2.173,-14.226 2.412,-15.776 0.741,-4.816 -3.21,-5.804 -3.21,-5.804 v -1.976 l 15.804,5.063 v 1.899 c 0,0 -3.581,-1.036 -4.198,2.422"
             style="fill:#e2001a;fill-opacity:1;fill-rule:nonzero;stroke:none"
             id="path30" /></g><g
           id="g32"
           transform="translate(146.3496,501.6343)"><path
             d="m 0,0 v 1.887 c 0,0 3.153,0.13 3.153,3.617 v 54.777 c 0,4.78 -5.297,6.2 -5.297,6.2 v 2.972 H 11.55 l 7.364,-51.805 7.364,51.546 h 12.66 v -2.713 c 0,0 -3.358,0.259 -3.358,-4.521 V 13.643 c 0,-3.488 3.769,-3.26 3.769,-3.26 V 9.295 L 24.692,6.308 v 1.651 c 0,0 4.152,0.682 4.152,4.151 V 61.831 L 20.319,5.314 17.36,4.614 6.77,59.118 V 7.571 c 0,-4.65 4.78,-2.713 4.78,-2.713 V 3.169 Z"
             style="fill:#e2001a;fill-opacity:1;fill-rule:nonzero;stroke:none"
             id="path34" /></g><g
           id="g36"
           transform="translate(222.9434,571.0874)"><path
             d="m 0,0 v -2.972 c 0,0 5.122,0.621 5.122,-6.239 V -46.127 C 5.122,-49.22 0,-51.926 0,-51.926 v -2.714 l 31.41,2.672 v 14.538 h -1.645 c 0,0 0.386,-11.983 -9.374,-11.983 -8.311,0 -7.248,6.185 -7.248,12.08 v 9.663 c 0,0 3.189,0.193 6.088,0.193 3.866,0 3.866,-9.663 3.866,-9.663 h 1.643 v 22.227 H 23 c 0,0 -0.387,-9.471 -3.962,-9.471 h -5.895 v 21.412 h 7.344 c 4.542,0 7.731,-10.685 7.731,-10.685 h 1.643 l 0,13.657 z"
             style="fill:#e2001a;fill-opacity:1;fill-rule:nonzero;stroke:none"
             id="path38" /></g><g
           id="g40"
           transform="translate(382.959,514.4653)"><path
             d="m 0,0 c -3.978,0 -8.286,6.623 -8.286,25.734 0,19.115 3.48,28.074 8.286,28.074 4.807,0 8.287,-8.959 8.287,-28.074 C 8.287,6.623 3.978,0 0,0 m 16.655,25.734 c 0,20.988 -7.706,31.504 -16.655,31.504 -8.948,0 -16.655,-8.624 -16.655,-31.504 0,-21.026 8.618,-29.649 16.655,-29.649 6.381,0 16.655,8.623 16.655,29.649"
             style="fill:#e2001a;fill-opacity:1;fill-rule:nonzero;stroke:none"
             id="path42" /></g><g
           id="g44"
           transform="translate(486.0791,487.6938)"><path
             d="m 0,0 c -4.849,0 -10.103,9.72 -10.103,37.771 0,28.054 4.245,41.204 10.103,41.204 5.859,0 10.104,-13.15 10.104,-41.204 C 10.104,9.72 4.85,0 0,0 M 20.307,37.771 C 20.307,68.573 10.911,84.01 0,84.01 -10.911,84.01 -20.306,71.351 -20.306,37.771 -20.306,6.909 -9.8,-5.747 0,-5.747 c 7.78,0 20.307,12.656 20.307,43.518"
             style="fill:#e2001a;fill-opacity:1;fill-rule:nonzero;stroke:none"
             id="path46" /></g><g
           id="g48"
           transform="translate(425.1309,571.0874)"><path
             d="m 0,0 c 0,0 -0.255,-3.427 -1.532,-3.427 -1.277,0 -4.511,4.256 -8.768,4.256 -5.193,0 -12.769,-6.894 -12.769,-19.238 0,-11.663 4.256,-16.942 9.108,-20.347 4.853,-3.405 10.386,-6.64 10.386,-13.961 0,-8.172 -3.738,-10.98 -6.551,-10.98 -2.813,0 -6.725,2.301 -8.854,8.854 -2.131,6.553 -2.813,11.576 -2.813,11.576 h -1.957 v -23.752 h 1.787 c 0,0 0.426,4.001 2.554,2.554 2.129,-1.446 5.194,-4.171 8.939,-4.171 3.745,0 14.046,2.639 14.046,21.878 0,10.897 -4.331,15.1 -9.949,19.443 -5.618,4.341 -9.631,5.33 -9.631,13.162 0,7.832 4.178,10.641 5.878,10.641 1.699,0 5.443,-1.106 7.487,-8.173 C -0.595,-18.75 0,-23.518 0,-23.518 H 2.214 V 0 Z"
             style="fill:#e2001a;fill-opacity:1;fill-rule:nonzero;stroke:none"
             id="path50" /></g><g
           id="g52"
           transform="translate(458.8506,570.5532)"><path
             d="m 0,0 c 0,0 -0.29,-3.792 -1.732,-3.792 -1.446,0 -5.103,4.71 -9.917,4.71 -5.872,0 -14.441,-7.632 -14.441,-21.293 0,-12.907 4.814,-18.749 10.301,-22.518 5.487,-3.769 11.745,-7.348 11.745,-15.452 0,-9.045 -4.768,-12.692 -7.949,-12.692 -3.18,0 -7.064,3.087 -9.473,10.339 -2.409,7.253 -3.18,12.812 -3.18,12.812 h -2.213 v -26.287 h 2.021 c 0,0 0.481,4.428 2.889,2.826 2.406,-1.601 5.872,-4.616 10.107,-4.616 4.237,0 15.885,2.92 15.885,24.213 0,12.061 -4.897,16.713 -11.252,21.519 -6.353,4.805 -10.891,5.898 -10.891,14.567 0,8.668 4.725,11.776 6.647,11.776 1.922,0 6.156,-1.223 8.468,-9.044 C -0.674,-20.752 0,-26.027 0,-26.027 H 2.503 V 0 Z"
             style="fill:#e2001a;fill-opacity:1;fill-rule:nonzero;stroke:none"
             id="path54" /></g><g
           id="g56"
           transform="translate(297.207,444.3657)"><path
             d="m 0,0 c 10.843,0 20.142,1.646 22.846,2.147 3.979,0.738 -3.095,2.064 -3.095,2.064 0,0 12.527,6.191 12.527,10.171 0,2.211 -14.066,1.473 -21.55,0.441 0,0 -14.855,-1.178 -14.855,-5.748 V 3.18 C -4.127,1.115 -2.8,0 0,0"
             style="fill:#e2001a;fill-opacity:1;fill-rule:nonzero;stroke:none"
             id="path58" /></g><g
           id="g60"
           transform="translate(266.4141,445.396)"><path
             d="m 0,0 c 6.77,-1.485 15.75,-1.496 19.797,-1.496 3.647,0 4.068,3.056 4.658,6.74 0.589,3.685 -0.148,6.927 -5.306,8.696 -5.159,1.769 -6.05,2.004 -8.741,3.037 C 8.005,17.898 5.993,16.617 3.967,14.235 1.936,11.846 0.535,9.663 -2.076,5.981 -4.25,2.916 -1.922,0.422 0,0"
             style="fill:#e2001a;fill-opacity:1;fill-rule:nonzero;stroke:none"
             id="path62" /></g><g
           id="g64"
           transform="translate(246.9561,453.6313)"><path
             d="m 0,0 c 1.15,-0.861 5.746,-3.692 9.255,-5.182 2.185,-0.926 4.84,-10e-4 6.26,3.519 1.42,3.518 6.42,9.259 7.593,10.433 1.173,1.172 1.604,2.469 0,3.209 -1.605,0.742 -1.42,0.679 -2.901,1.359 -1.482,0.68 -2.038,0.123 -5.186,-1.42 C 11.873,10.375 3.875,5.387 1.467,4.151 -0.94,2.917 -1.15,0.86 0,0"
             style="fill:#e2001a;fill-opacity:1;fill-rule:nonzero;stroke:none"
             id="path66" /></g><g
           id="g68"
           transform="translate(236.604,471.2905)"><path
             d="m 0,0 c 0,-3.396 1.826,-8.321 4.288,-11.707 1.482,-1.481 3.05,-1.856 6.415,0.312 3.365,2.168 9.915,6.434 15.327,8.374 0.936,0.336 2.168,0.823 2.168,0.823 v 1.57 c 0,0 -11.147,-0.146 -16.598,0.319 C 7.223,0.065 3.705,2.474 1.606,2.474 -0.043,2.474 0,0 0,0"
             style="fill:#e2001a;fill-opacity:1;fill-rule:nonzero;stroke:none"
             id="path70" /></g><g
           id="g72"
           transform="translate(241.1045,489.4341)"><path
             d="m 0,0 c -1.107,-1.505 -3.95,-4.614 -4.51,-9.861 0,0 -0.484,-2.357 2.232,-3.467 2.716,-1.111 11.359,-3.457 18.273,-3.457 6.915,0 7.779,-0.247 8.273,1.173 0.494,1.42 -0.494,2.036 -2.408,3.21 -1.914,1.173 -6.297,3.333 -10.495,6.852 C 7.167,-2.031 5.439,-0.487 4.39,0.562 3.341,1.61 1.321,1.797 0,0"
             style="fill:#e2001a;fill-opacity:1;fill-rule:nonzero;stroke:none"
             id="path74" /></g><g
           id="g76"
           transform="translate(273.4814,502.7642)"><path
             d="m 0,0 c -9.442,-0.765 -17.544,-2.968 -25.34,-6.766 0,0 -3.638,-2.544 0,-4.963 3.638,-2.42 19.368,-14.301 19.368,-14.301 0,0 2.64,0.109 4.731,1.099 2.09,0.992 4.895,2.256 2.695,4.456 -1.431,1.431 -4.236,3.686 -4.236,7.756 C -2.782,-8.649 0,0 0,0"
             style="fill:#e2001a;fill-opacity:1;fill-rule:nonzero;stroke:none"
             id="path78" /></g><g
           id="g80"
           transform="translate(306.5488,481.2915)"><path
             d="M 0,0 H 21.113 L 37.041,-12.408 21.113,-1.852 H 0 Z"
             style="fill:#e2001a;fill-opacity:1;fill-rule:nonzero;stroke:none"
             id="path82" /></g><g
           id="g84"
           transform="translate(291.1772,477.2173)"><path
             d="M 0,0 H 21.576 L 30.002,-15.927 20.65,-1.852 H -2.038 Z"
             style="fill:#e2001a;fill-opacity:1;fill-rule:nonzero;stroke:none"
             id="path86" /></g><g
           id="g88"
           transform="translate(267.2861,472.4019)"><path
             d="M 0,0 8.149,3.704 23.891,-9.445 7.963,1.619 1.034,-1.624 Z"
             style="fill:#e2001a;fill-opacity:1;fill-rule:nonzero;stroke:none"
             id="path90" /></g><g
           id="g92"
           transform="translate(271.731,469.0688)"><path
             d="M 0,0 4.557,1.925 15.001,-6.112 4.445,-0.08 1.157,-1.528 Z"
             style="fill:#e2001a;fill-opacity:1;fill-rule:nonzero;stroke:none"
             id="path94" /></g><g
           id="g96"
           transform="translate(412.2793,502.0718)"><path
             d="M 0,0 H 0.001 L 0,-0.001 Z m -22.036,-29.129 c -25.695,0.022 -52.015,14.582 -65.735,14.526 v -0.859 2.343 c 14.458,-0.055 40.471,-14.549 65.735,-14.528 18.419,0.029 24.942,11.915 24.981,20.301 0.012,3.524 -0.825,6.958 -2.562,7.979 l 0.764,1.266 c 2.426,-1.494 3.269,-5.421 3.281,-9.245 -0.003,-4.566 -1.802,-10.001 -6.031,-14.321 -4.224,-4.318 -10.874,-7.462 -20.413,-7.462 z"
             style="fill:#e2001a;fill-opacity:1;fill-rule:nonzero;stroke:none"
             id="path98" /></g><g
           id="g100"
           transform="translate(414.5049,501.729)"><path
             d="m 0,0 v -0.001 z m -22.394,-24.529 c -13.374,0 -24.173,1.96 -33.068,3.29 -17.882,2.68 -28.36,6.569 -37.192,7.258 l 0.115,1.476 c 9.091,-0.72 19.496,-4.605 37.296,-7.267 8.93,-1.339 19.619,-3.275 32.849,-3.275 13.998,0.001 21.016,3.495 24.551,7.055 3.535,3.563 3.694,7.297 3.696,8.065 C 5.855,-7.101 5.77,-5.375 4.997,-3.758 4.214,-2.145 2.992,0.096 0.156,0.723 L 0,0 0.469,2.171 C 3.74,1.477 5.426,-1.18 6.336,-3.123 c 0.919,-1.94 0.997,-3.879 0.999,-4.804 0.003,-0.979 -0.223,-5.177 -4.126,-9.109 -3.903,-3.93 -11.371,-7.493 -25.584,-7.493 z"
             style="fill:#e2001a;fill-opacity:1;fill-rule:nonzero;stroke:none"
             id="path102" /></g><g
           id="g104"
           transform="translate(317.9697,493.8853)"><path
             d="m 0,0 c -1.432,0 -2.593,1.161 -2.593,2.593 0,1.431 1.161,2.593 2.593,2.593 1.432,0 2.593,-1.162 2.593,-2.593 C 2.593,1.161 1.432,0 0,0 m 30.944,0.229 c 0,0 -3.41,-1.099 -7.7,-1.099 -5.445,0 -10.581,3.63 -17.161,3.63 -1.322,0 -1.756,0.546 -1.756,1.536 0,0.793 0.883,1.214 1.763,1.214 0.881,0 6.153,-1.43 9.783,-1.43 3.631,0 8.754,0.438 8.754,0.438 0,0 -6.035,0.434 -12.963,2.645 -6.928,2.211 -7.96,3.832 -12.529,3.832 -4.57,0 -11.35,-2.211 -18.424,-2.211 -2.599,0 -11.735,0.875 -22.256,0.295 0,0 -2.424,-7.09 -2.424,-11.71 0,-4.62 3.024,-7.684 4.948,-10.25 1.65,-2.2 4.787,-2.235 13.752,-1.19 9.943,1.158 21.341,8.14 27.722,8.14 0,0 4.29,-0.77 11.11,-0.77 6.821,0 16.061,1.541 16.061,1.541 l -4.18,1.649 c 0,0 1.54,0.331 3.52,1.431 1.98,1.1 1.98,2.309 1.98,2.309"
             style="fill:#e2001a;fill-opacity:1;fill-rule:nonzero;stroke:none"
             id="path106" /></g><g
           id="g108"
           transform="translate(276.6157,547.4312)"><path
             d="m 0,0 c -2.541,-2.232 -6.203,-1.995 -6.203,-1.995 v 22.047 c 0,0 3.752,0.622 6.248,-1.364 C 2.025,17.111 2.871,13.542 2.871,9.222 2.871,5.04 1.902,1.671 0,0 m 13.357,-21.783 c -2.268,3.935 -9.45,19.359 -9.45,19.359 0,0 7.469,4.624 7.469,13.194 0,9.573 -6.238,12.886 -12.381,12.886 h -17.768 v -2.971 c 0,0 4.631,0 4.631,-3.438 v -35.57 c 0,-6.432 -4.631,-6.146 -4.631,-6.146 v -3.648 l 17.412,0.683 v 2.965 c 0,0 -4.728,0.093 -4.728,6.76 v 13.612 h 1.574 L 5.672,-27.294 h 12.316 v 2.548 c 0,0 -2.362,-0.973 -4.631,2.963"
             style="fill:#e2001a;fill-opacity:1;fill-rule:nonzero;stroke:none"
             id="path110" /></g><g
           id="g112"
           transform="translate(351.8887,546.522)"><path
             d="m 0,0 c -2.438,-2.232 -5.952,-1.995 -5.952,-1.995 v 22.956 c 0,0 3.6,0.622 5.996,-1.364 1.9,-1.576 2.711,-5.146 2.711,-9.466 C 2.755,5.949 1.826,1.672 0,0 m 11.923,-23.694 c -1.755,4.141 -9.073,21.28 -9.073,21.28 0,0 8.068,3.577 8.068,14.093 0,9.573 -5.987,12.886 -11.882,12.886 h -17.053 v -2.971 c 0,0 4.445,0 4.445,-3.438 v -35.57 c 0,-7.374 -4.445,-7.966 -4.445,-7.966 v -1.828 l 16.71,-1.826 v 2.966 c 0,0 -4.536,0.294 -4.536,5.918 v 15.096 h 1.511 l 9.313,-24.608 12.282,-1.434 v 2.548 c 0,0 -3.162,-0.285 -5.34,4.854"
             style="fill:#e2001a;fill-opacity:1;fill-rule:nonzero;stroke:none"
             id="path114" /></g><g
           id="g116"
           transform="translate(206.1201,516.3296)"><path
             d="m 0,0 c -2.998,-0.58 -4.158,1.645 -4.158,5.415 v 19.34 c 0,0 11.024,2.321 11.024,-12.377 C 6.866,2.708 2.998,0.58 0,0 m -4.158,51.153 c 0,0 3.839,0.622 6.393,-1.364 2.026,-1.576 2.89,-5.145 2.89,-9.466 0,-4.181 -0.99,-7.551 -2.936,-9.221 -2.6,-2.233 -6.347,-1.996 -6.347,-1.996 z M 4.448,26.979 c 0,0 9.38,4.158 9.38,14.892 0,9.573 -6.382,12.887 -12.667,12.887 h -18.18 v -2.972 c 0,0 4.739,0 4.739,-3.437 V 4.932 c 0,-8.219 -4.739,-7.542 -4.739,-7.542 v -2.251 c 0,0 16.998,2.881 22.083,3.531 6.564,0.84 10.698,5.392 10.698,13.804 0,12.764 -11.314,14.505 -11.314,14.505"
             style="fill:#e2001a;fill-opacity:1;fill-rule:nonzero;stroke:none"
             id="path118" /></g><g
           id="g120"
           transform="translate(307.9346,523.3169)"><path
             d="m 0,0 c -3.978,0 -8.286,5.599 -8.286,21.757 0,16.159 3.48,23.733 8.286,23.733 4.806,0 8.286,-7.574 8.286,-23.733 C 8.286,5.599 3.978,0 0,0 M 16.655,21.757 C 16.655,39.499 8.949,48.391 0,48.391 -8.949,48.391 -16.655,41.099 -16.655,21.757 -16.655,3.98 -8.038,-3.31 0,-3.31 c 6.381,0 16.655,7.29 16.655,25.067"
             style="fill:#e2001a;fill-opacity:1;fill-rule:nonzero;stroke:none"
             id="path122" /></g></g></g></g></svg>
